<svg width="40" height="40" viewBox="0 0 40 40" fill="none" xmlns="http://www.w3.org/2000/svg">
<rect width="40" height="40" rx="16" fill="white"/>
<path d="M20.76 28.7485C19.95 28.7485 19.08 28.4685 18.18 27.9085L15.2 26.0485C14.99 25.9185 14.76 25.8485 14.52 25.8485H13.06C10.6 25.8485 9.25 24.4985 9.25 22.0385V17.9585C9.25 15.4985 10.6 14.1485 13.06 14.1485H14.52C14.76 14.1485 15 14.0785 15.2 13.9485L18.18 12.0885C19.67 11.1585 21.11 10.9885 22.25 11.6285C23.39 12.2585 24.01 13.5685 24.01 15.3285V24.6885C24.01 26.4385 23.38 27.7585 22.25 28.3885C21.8 28.6285 21.3 28.7485 20.76 28.7485ZM13.06 15.6485C11.44 15.6485 10.75 16.3385 10.75 17.9585V22.0385C10.75 23.6585 11.44 24.3485 13.06 24.3485H14.52C15.04 24.3485 15.55 24.4985 16 24.7685L18.98 26.6285C19.97 27.2485 20.9 27.3985 21.53 27.0585C22.16 26.7085 22.52 25.8385 22.52 24.6785V15.3185C22.52 14.1485 22.16 13.2785 21.53 12.9385C20.9 12.5885 19.97 12.7485 18.98 13.3685L16 15.2185C15.55 15.4985 15.04 15.6485 14.52 15.6485H13.06Z" fill="#366DAF"/>
<path d="M30 20.75H26C25.59 20.75 25.25 20.41 25.25 20C25.25 19.59 25.59 19.25 26 19.25H30C30.41 19.25 30.75 19.59 30.75 20C30.75 20.41 30.41 20.75 30 20.75Z" fill="#366DAF"/>
<path d="M28 22.75C27.59 22.75 27.25 22.41 27.25 22V18C27.25 17.59 27.59 17.25 28 17.25C28.41 17.25 28.75 17.59 28.75 18V22C28.75 22.41 28.41 22.75 28 22.75Z" fill="#366DAF"/>
</svg>
