<svg width="40" height="40" viewBox="0 0 40 40" fill="none" xmlns="http://www.w3.org/2000/svg">
<rect width="40" height="40" rx="16" fill="white"/>
<path fill-rule="evenodd" clip-rule="evenodd" d="M14.7789 15.9H13.5386H13.4C12.6574 15.9 11.9452 16.195 11.4201 16.7201C10.895 17.2452 10.6 17.9574 10.6 18.7V24.2C10.6 24.9426 10.895 25.6548 11.4201 26.1799C11.9452 26.705 12.6574 27 13.4 27H26.6C27.3426 27 28.0548 26.705 28.5799 26.1799L29.6358 27.2358L28.5799 26.1799C29.105 25.6548 29.4 24.9426 29.4 24.2V18.7C29.4 17.9574 29.105 17.2452 28.5799 16.7201C28.0548 16.195 27.3426 15.9 26.6 15.9H26.4614H25.2225L24.9124 14.7006C24.7569 14.0994 24.4061 13.5669 23.9151 13.1866C23.4242 12.8065 22.8209 12.6001 22.2 12.6H22.1998H17.8C16.4974 12.6 15.399 13.491 15.0881 14.6988L14.7789 15.9ZM22.2 11C23.1756 11.0001 24.1234 11.3243 24.8948 11.9216C25.6661 12.5189 26.2171 13.3555 26.4614 14.3H26.6C27.767 14.3 28.8861 14.7636 29.7113 15.5887C30.5364 16.4139 31 17.533 31 18.7V24.2C31 25.367 30.5364 26.4861 29.7113 27.3113C28.8861 28.1364 27.767 28.6 26.6 28.6H13.4C12.233 28.6 11.1139 28.1364 10.2887 27.3113C9.46357 26.4861 9 25.367 9 24.2V18.7C9 17.533 9.46357 16.4139 10.2887 15.5887C11.1139 14.7636 12.233 14.3 13.4 14.3H13.5386C14.027 12.4025 15.7496 11 17.8 11H22.2ZM19.45 23.7C20.6926 23.7 21.7 22.6926 21.7 21.45C21.7 20.2074 20.6926 19.2 19.45 19.2C18.2074 19.2 17.2 20.2074 17.2 21.45C17.2 22.6926 18.2074 23.7 19.45 23.7ZM19.45 25.3C21.5763 25.3 23.3 23.5763 23.3 21.45C23.3 19.3237 21.5763 17.6 19.45 17.6C17.3237 17.6 15.6 19.3237 15.6 21.45C15.6 23.5763 17.3237 25.3 19.45 25.3ZM26.05 20.9C26.9613 20.9 27.7 20.1613 27.7 19.25C27.7 18.3387 26.9613 17.6 26.05 17.6C25.1387 17.6 24.4 18.3387 24.4 19.25C24.4 20.1613 25.1387 20.9 26.05 20.9Z" fill="#366DAF"/>
</svg>
