<svg width="40" height="40" viewBox="0 0 40 40" fill="none" xmlns="http://www.w3.org/2000/svg">
<rect width="40" height="40" rx="16" fill="white"/>
<path fill-rule="evenodd" clip-rule="evenodd" d="M14.5052 24.9259C13.6899 23.786 13.25 22.413 13.25 21V16C13.25 12.28 16.28 9.25 20 9.25C22.7084 9.25 25.1038 10.8529 26.1726 13.2585L28.9714 10.4597C29.2614 10.1697 29.7414 10.1697 30.0314 10.4597C30.3214 10.7497 30.3214 11.2297 30.0314 11.5197L14.4501 27.101C15.9697 28.4847 17.937 29.2383 19.9914 29.2383C24.5414 29.2383 28.2414 25.5383 28.2414 20.9883V18.9883C28.2414 18.5783 28.5814 18.2383 28.9914 18.2383C29.4014 18.2383 29.7414 18.5783 29.7414 18.9883V20.9883C29.7514 26.3783 25.3814 30.7483 20.0014 30.7483C17.5382 30.7483 15.1935 29.8309 13.3884 28.1627L11.0314 30.5197C10.8814 30.6697 10.6914 30.7397 10.5014 30.7397C10.3114 30.7397 10.1214 30.6697 9.97141 30.5197C9.68141 30.2297 9.68141 29.7497 9.97141 29.4597L14.5052 24.9259ZM25.0131 14.418C24.3476 12.3362 22.4785 10.8818 20.3008 10.7585V13.5017C20.3008 13.9217 19.9608 14.2517 19.5508 14.2517C19.1408 14.2517 18.8008 13.9117 18.8008 13.5017V10.8883C18.2451 11.0187 17.7228 11.2376 17.25 11.5295V15.5C17.25 15.91 16.91 16.25 16.5 16.25C16.09 16.25 15.75 15.91 15.75 15.5V12.9207C15.1214 13.7856 14.75 14.8495 14.75 16V21C14.75 22.0156 15.0431 23.0039 15.5844 23.8467L25.0131 14.418ZM17.6618 27.3305C18.4018 27.6105 19.1918 27.7505 20.0018 27.7505C23.7218 27.7505 26.7518 24.7205 26.7518 21.0005V17.9805C26.7518 17.5705 26.4118 17.2305 26.0018 17.2305C25.5918 17.2305 25.2518 17.5705 25.2518 17.9805V21.0105C25.2518 23.9105 22.8918 26.2605 20.0018 26.2605C19.3818 26.2605 18.7618 26.1505 18.1818 25.9305C17.8018 25.7805 17.3618 25.9805 17.2218 26.3705C17.0718 26.7505 17.2718 27.1905 17.6618 27.3305Z" fill="#060C13" fill-opacity="0.32"/>
</svg>
