<svg width="28" height="25" viewBox="0 0 28 25" fill="none" xmlns="http://www.w3.org/2000/svg">
<path d="M13.9248 22.8351C8.69355 22.8351 3.0498 19.5538 3.0498 12.3538C3.0498 5.15381 8.69355 1.87256 13.9248 1.87256C16.8311 1.87256 19.5123 2.82881 21.4998 4.57256C23.6561 6.48506 24.7998 9.18506 24.7998 12.3538C24.7998 15.5226 23.6561 18.2038 21.4998 20.1163C19.5123 21.8601 16.8123 22.8351 13.9248 22.8351Z" fill="url(#paint0_radial_376_4103)"/>
<path d="M22.9037 6.12317C23.9031 7.73567 24.4244 9.65567 24.4244 11.7913C24.4244 14.96 23.2806 17.6413 21.1244 19.5538C19.1369 21.2975 16.4369 22.2725 13.5494 22.2725C10.1631 22.2725 6.61188 20.8944 4.51562 17.9713C6.53312 21.2825 10.3281 22.835 13.9244 22.835C16.8119 22.835 19.5119 21.86 21.4994 20.1163C23.6556 18.2038 24.7994 15.5225 24.7994 12.3538C24.7994 9.96504 24.1488 7.84254 22.9037 6.12317Z" fill="#EB8F00"/>
<path d="M24.5728 15.95C24.3646 14.915 23.3559 14.2438 22.319 14.4538C22.1653 14.4856 22.0153 14.5344 21.8746 14.6019C21.9403 13.55 21.1415 12.6425 20.0896 12.5769C19.4203 12.5356 18.779 12.8469 18.3984 13.3981C17.714 14.4219 17.8959 15.8806 18.2109 17.0281C18.3984 17.705 18.1678 18.4306 17.624 18.875C21.4265 19.6044 23.2921 18.8938 24.2896 17.375C24.5709 16.9569 24.6721 16.4431 24.5728 15.95Z" fill="#E53935"/>
<path d="M20.3919 19.4563C20.1781 19.4563 18.3462 19.2857 17.6094 18.8732C17.6375 18.83 18.7344 18.8619 20.3488 18.8882C20.8981 18.8994 21.4456 18.8413 21.9781 18.7119C22.7281 18.5244 23.4331 18.1494 23.8531 17.4875C24.0969 17.1125 24.35 16.5988 24.3031 16.1469C24.2169 15.5638 23.945 15.0238 23.5287 14.6075C23.8494 14.705 24.1381 14.885 24.3669 15.1288C24.9819 15.8675 24.8919 16.925 24.3237 17.795C23.6094 18.905 22.31 19.4563 20.3919 19.4563Z" fill="#C62828"/>
<path d="M18.9798 13.2407C19.201 13.0438 19.4785 12.9182 19.7748 12.8863C20.0785 12.8638 20.431 13.0157 20.4948 13.3138C20.5191 13.5201 20.4516 13.7263 20.3073 13.8763C20.1704 14.0357 20.0016 14.1613 19.8723 14.3245C19.5216 14.7632 19.5085 15.3801 19.2441 15.8751C19.1504 16.0495 18.961 16.2257 18.781 16.1451C18.7248 16.117 18.6779 16.0757 18.6423 16.0251C18.0085 15.2526 18.2373 13.8726 18.9798 13.2407Z" fill="#EF5350"/>
<path d="M21.6368 15.3913C21.5674 15.4401 21.483 15.4607 21.3987 15.4495C21.3124 15.4307 21.2412 15.3688 21.2112 15.2863C21.1793 15.1963 21.2037 15.097 21.273 15.0332C21.3405 14.9488 21.3874 14.8513 21.4137 14.7482C21.4699 14.5326 21.4849 14.3095 21.4605 14.0882C21.4324 13.7338 21.1755 13.2163 21.0293 12.892C21.3593 13.0963 21.6237 13.3926 21.7905 13.7432C21.9068 14.0357 21.9612 14.347 21.9537 14.662C21.9687 14.9301 21.8637 15.1907 21.6668 15.3745L21.6368 15.3913Z" fill="#C62828"/>
<path d="M20.2683 10.9532L20.2327 10.9026C20.199 10.8538 20.1615 10.8069 20.1221 10.7619C19.989 10.6082 19.8352 10.4713 19.6683 10.3551C19.4433 10.1976 19.1996 10.0682 18.9427 9.97069C18.8021 9.91631 18.6577 9.86944 18.5115 9.83381C18.4383 9.81506 18.3577 9.79631 18.2771 9.78131L18.1646 9.76069C18.2002 9.74006 18.2358 9.71944 18.2733 9.70069L18.6015 9.52819C18.8152 9.41944 19.014 9.32569 19.1827 9.24881C19.3515 9.17194 19.4902 9.11944 19.584 9.08381L19.7265 9.03131L19.7677 9.01631C20.0358 8.91881 20.1746 8.62069 20.0752 8.35256C20.0021 8.15569 19.8183 8.02069 19.6083 8.01319C19.5296 8.00944 19.4527 8.00944 19.374 8.01319C19.1846 8.03006 18.9952 8.06194 18.8115 8.10881C18.5602 8.17069 18.3146 8.25319 18.0746 8.35256C17.9471 8.40694 17.8121 8.46131 17.6827 8.52694C17.5533 8.59256 17.4127 8.66569 17.2965 8.72944C17.1802 8.79319 17.0396 8.88131 16.9215 8.96194C16.8033 9.04256 16.6815 9.12694 16.569 9.20944C16.3608 9.36319 16.1658 9.53381 15.9821 9.71569C15.8452 9.85069 15.7196 9.99694 15.6071 10.1544C15.5677 10.2032 15.5302 10.2557 15.5002 10.3101L15.474 10.3532C15.4046 10.4751 15.3877 10.6194 15.4271 10.7544C15.4327 10.7994 15.444 10.8426 15.459 10.8838C15.5658 11.1482 15.8677 11.2776 16.134 11.1707L16.1808 11.1519L16.2352 11.1294L16.2802 11.1201L16.4302 11.0826C16.4902 11.0676 16.5633 11.0563 16.6421 11.0432C16.8277 11.0169 17.0171 11.0019 17.2046 11.0019C17.4277 11.0019 17.649 11.0188 17.8702 11.0488C17.9077 11.0488 18.0071 11.0676 18.0465 11.0769L18.204 11.1088C18.3146 11.1332 18.4215 11.1557 18.5208 11.1876C18.7008 11.2363 18.879 11.3001 19.0496 11.3751C19.164 11.4257 19.2727 11.4857 19.3796 11.5513C19.4546 11.5963 19.4921 11.6226 19.4921 11.6226L19.5446 11.6619C19.7715 11.8307 20.0921 11.7819 20.2608 11.5551C20.394 11.3751 20.3958 11.1313 20.2646 10.9513L20.2683 10.9532Z" fill="#422B0D"/>
<path d="M15.661 16.4844C15.9816 16.2013 16.1822 15.8094 16.2235 15.3838C16.2591 14.7088 16.0866 14.4763 15.8654 14.1819C15.3572 13.4976 13.9154 13.6607 13.9154 13.6607C13.5404 13.6757 13.0829 13.8594 13.1372 14.3057C13.2104 14.5588 13.4166 14.7519 13.6754 14.8101C14.2379 14.9469 15.0572 14.8101 15.0797 15.3894C15.106 16.0382 14.1085 15.7644 14.0297 16.4582C13.951 17.1519 15.0797 17.0563 15.0797 17.5288C15.0797 17.8907 14.7047 17.9526 14.3166 18.0351C13.981 18.1044 13.336 18.2094 13.2835 18.5976C13.231 18.9857 13.4541 19.4544 14.3616 19.3176C15.7885 19.1019 16.2685 18.3201 16.2685 17.8401C16.2779 17.3207 16.0547 16.8238 15.661 16.4844Z" fill="#422B0D"/>
<path d="M10.1372 6.38382C10.5516 6.25819 10.4916 5.65444 10.0247 5.70132C9.66093 5.74444 9.30656 5.84382 8.97468 5.99757C8.06718 6.40257 7.35093 7.14132 6.97218 8.06007C6.80343 8.49132 7.37343 8.70694 7.59656 8.35444C8.19843 7.43194 9.09281 6.73632 10.1372 6.38382Z" fill="#422B0D"/>
<path d="M10.1875 8.23633C9.40188 8.23633 8.6875 8.90008 8.6875 10.0026C8.6875 11.1051 9.40188 11.767 10.1875 11.767C10.9731 11.767 11.6875 11.1032 11.6875 10.0026C11.6875 8.90195 10.9731 8.23633 10.1875 8.23633Z" fill="#422B0D"/>
<path d="M10.1152 8.9732C9.84894 8.8457 9.52831 8.9582 9.39894 9.22445C9.29956 9.43257 9.34456 9.68195 9.51144 9.8432C9.77769 9.9707 10.0983 9.8582 10.2277 9.59195C10.3271 9.38382 10.2821 9.13445 10.1152 8.9732Z" fill="#896024"/>
<defs>
<radialGradient id="paint0_radial_376_4103" cx="0" cy="0" r="1" gradientUnits="userSpaceOnUse" gradientTransform="translate(13.9248 12.3538) scale(10.6799 10.6799)">
<stop offset="0.5" stop-color="#FDE030"/>
<stop offset="0.92" stop-color="#F7C02B"/>
<stop offset="1" stop-color="#F4A223"/>
</radialGradient>
</defs>
</svg>
