<svg width="24" height="24" viewBox="0 0 24 24" fill="none" xmlns="http://www.w3.org/2000/svg">
<path fill-rule="evenodd" clip-rule="evenodd" d="M11.535 3C7.68702 3 4.18341 5.2686 1.79249 9.02697C1.2473 9.88139 1 10.976 1 12.025C1 13.0739 1.2472 14.1682 1.79218 15.0226C4.18311 18.7812 7.68685 21.05 11.535 21.05C15.3832 21.05 18.8869 18.7812 21.2778 15.0226C21.8228 14.1682 22.07 13.0739 22.07 12.025C22.07 10.9762 21.8228 9.88181 21.2778 9.02746L19.4635 9.02741C19.4633 9.02712 19.4631 9.02682 19.4629 9.02653L21.2772 9.02648C18.8863 5.26841 15.3828 3 11.535 3ZM14.6563 9.02665L19.4629 9.02653C17.3236 6.09707 14.4866 4.5 11.535 4.5C8.58333 4.5 5.74618 6.09721 3.60688 9.02692L1.79249 9.02697L3.60681 9.02701C3.41826 9.28523 3.23513 9.5538 3.05782 9.83254L3.0572 9.83352C2.70261 10.3891 2.5 11.1843 2.5 12.025C2.5 12.8658 2.70261 13.661 3.05719 14.2165L3.05782 14.2175C5.24689 17.6588 8.32315 19.55 11.535 19.55C14.7469 19.55 17.8231 17.6588 20.0122 14.2175L20.0128 14.2165C20.3674 13.661 20.57 12.8658 20.57 12.025C20.57 11.1843 20.3674 10.3891 20.0128 9.83352L20.0122 9.83254C19.835 9.55395 19.652 9.28551 19.4635 9.02741L14.6569 9.02729C15.4053 9.80532 15.865 10.8632 15.865 12.0299C15.865 14.4241 13.9293 16.3599 11.535 16.3599C9.14081 16.3599 7.20508 14.4241 7.20508 12.0299C7.20508 10.8631 7.66483 9.80518 8.41334 9.02713L3.60681 9.02701C3.60683 9.02698 3.60685 9.02695 3.60688 9.02692L8.41366 9.0268C9.20103 8.20855 10.3078 7.69995 11.535 7.69995C12.7622 7.69995 13.8689 8.20849 14.6563 9.02665ZM8.70508 12.0299C8.70508 10.4641 9.96925 9.19995 11.535 9.19995C13.1008 9.19995 14.365 10.4641 14.365 12.0299C14.365 13.5957 13.1008 14.8599 11.535 14.8599C9.96926 14.8599 8.70508 13.5957 8.70508 12.0299Z" fill="#060C13" fill-opacity="0.87"/>
</svg>
