<svg width="22" height="22" viewBox="0 0 22 22" fill="none" xmlns="http://www.w3.org/2000/svg">
<path d="M1.98525 9.5373C1.70816 9.45913 1.46339 9.29423 1.28686 9.0668C1.11032 8.83936 1.01129 8.56134 1.0043 8.27352C0.997313 7.98569 1.08272 7.70319 1.24801 7.46745C1.4133 7.23171 1.64977 7.05513 1.92275 6.9636L20.1053 1.0335C20.2244 0.994674 20.3519 0.989487 20.4738 1.01851C20.5957 1.04754 20.7071 1.10965 20.796 1.198C20.8848 1.28635 20.9475 1.3975 20.9772 1.51921C21.0068 1.64093 21.0023 1.76847 20.9641 1.88778L15.0385 20.0794C14.9474 20.3528 14.7709 20.5898 14.5351 20.7555C14.2992 20.9211 14.0164 21.0067 13.7282 20.9996C13.4401 20.9925 13.1618 20.8931 12.9344 20.716C12.707 20.539 12.5424 20.2936 12.4648 20.016L10.7169 12.754C10.5409 12.023 9.96995 11.4525 9.23889 11.2772L1.98525 9.5373Z" stroke="#366DAF" stroke-width="2" stroke-linecap="round" stroke-linejoin="round"/>
<path d="M20.796 1.19653L10.4297 11.5629" stroke="#366DAF" stroke-width="2" stroke-linecap="round" stroke-linejoin="round"/>
</svg>
