<svg width="40" height="40" viewBox="0 0 40 40" fill="none" xmlns="http://www.w3.org/2000/svg">
<rect width="40" height="40" rx="16" fill="white"/>
<path d="M14 17H22V19H14V17Z" fill="#366DAF"/>
<path d="M18 26C19.775 25.9996 21.4988 25.4054 22.897 24.312L27.293 28.708L28.707 27.294L24.311 22.898C25.405 21.4997 25.9996 19.7754 26 18C26 13.589 22.411 10 18 10C13.589 10 10 13.589 10 18C10 22.411 13.589 26 18 26ZM18 12C21.309 12 24 14.691 24 18C24 21.309 21.309 24 18 24C14.691 24 12 21.309 12 18C12 14.691 14.691 12 18 12Z" fill="#366DAF"/>
</svg>
