<svg width="19" height="22" viewBox="0 0 19 22" fill="none" xmlns="http://www.w3.org/2000/svg">
<path d="M9.3739 12.9214C7.24391 12.9214 5.50391 11.1914 5.50391 9.0514C5.50391 6.91141 7.24391 5.19141 9.3739 5.19141C11.5039 5.19141 13.2439 6.92141 13.2439 9.0614C13.2439 11.2014 11.5039 12.9214 9.3739 12.9214ZM9.3739 6.69141C8.0739 6.69141 7.00391 7.75141 7.00391 9.0614C7.00391 10.3714 8.0639 11.4314 9.3739 11.4314C10.6839 11.4314 11.7439 10.3714 11.7439 9.0614C11.7439 7.75141 10.6739 6.69141 9.3739 6.69141Z" fill="#060C13" fill-opacity="0.6"/>
<path d="M9.3766 21.51C7.8966 21.51 6.40664 20.95 5.24664 19.84C2.29664 17 -0.963359 12.47 0.266641 7.08C1.37664 2.19 5.64664 0 9.3766 0C9.3766 0 9.3766 0 9.3866 0C13.1166 0 17.3866 2.19 18.4966 7.09C19.7166 12.48 16.4566 17 13.5066 19.84C12.3466 20.95 10.8566 21.51 9.3766 21.51ZM9.3766 1.5C6.46664 1.5 2.72664 3.05 1.73664 7.41C0.656641 12.12 3.61664 16.18 6.29664 18.75C8.0266 20.42 10.7366 20.42 12.4666 18.75C15.1366 16.18 18.0966 12.12 17.0366 7.41C16.0366 3.05 12.2866 1.5 9.3766 1.5Z" fill="#060C13" fill-opacity="0.6"/>
</svg>
