<svg width="25" height="24" viewBox="0 0 25 24" fill="none" xmlns="http://www.w3.org/2000/svg">
<path d="M12.4989 13.9214C10.3689 13.9214 8.62891 12.1914 8.62891 10.0514C8.62891 7.91141 10.3689 6.19141 12.4989 6.19141C14.6289 6.19141 16.3689 7.92141 16.3689 10.0614C16.3689 12.2014 14.6289 13.9214 12.4989 13.9214ZM12.4989 7.69141C11.1989 7.69141 10.1289 8.75141 10.1289 10.0614C10.1289 11.3714 11.1889 12.4314 12.4989 12.4314C13.8089 12.4314 14.8689 11.3714 14.8689 10.0614C14.8689 8.75141 13.7989 7.69141 12.4989 7.69141Z" fill="#060C13" fill-opacity="0.6"/>
<path d="M12.5016 22.51C11.0216 22.51 9.53164 21.95 8.37164 20.84C5.42164 18 2.16164 13.47 3.39164 8.08C4.50164 3.19 8.77164 1 12.5016 1C12.5016 1 12.5016 1 12.5116 1C16.2416 1 20.5116 3.19 21.6216 8.09C22.8416 13.48 19.5816 18 16.6316 20.84C15.4716 21.95 13.9816 22.51 12.5016 22.51ZM12.5016 2.5C9.59164 2.5 5.85164 4.05 4.86164 8.41C3.78164 13.12 6.74164 17.18 9.42164 19.75C11.1516 21.42 13.8616 21.42 15.5916 19.75C18.2616 17.18 21.2216 13.12 20.1616 8.41C19.1616 4.05 15.4116 2.5 12.5016 2.5Z" fill="#060C13" fill-opacity="0.6"/>
</svg>
