<svg width="25" height="24" viewBox="0 0 25 24" fill="none" xmlns="http://www.w3.org/2000/svg">
<g clip-path="url(#clip0_69_5235)">
<g clip-path="url(#clip1_69_5235)">
<path d="M0.875 15H24.875V21H0.875V15Z" fill="black"/>
<path d="M0.875 9H24.875V15H0.875V9Z" fill="white"/>
<path d="M0.875 3H24.875V9H0.875V3Z" fill="#CE1126"/>
<path d="M12.8989 12.0719L14.9539 13.9799L14.8069 10.5149C14.7859 9.98992 14.3299 10.1099 13.9969 10.2989C13.6639 10.5149 13.2769 10.5149 12.8749 10.3739C12.4699 10.5149 12.0859 10.5149 11.7529 10.2989C11.4229 10.1099 10.9639 9.98992 10.9429 10.5149L10.7959 13.9799L12.8989 12.0719Z" fill="white" stroke="#C09300" stroke-width="0.13" stroke-linejoin="round"/>
<path d="M11.1799 10.395L11.0359 13.764L10.7959 13.98L10.9429 10.515C11.0138 10.4607 11.0941 10.42 11.1799 10.395ZM11.4679 10.635L11.3479 13.455L11.1079 13.701L11.2519 10.446C11.2999 10.494 11.4409 10.611 11.4679 10.635ZM11.7289 10.851L11.6359 13.203L11.4409 13.392L11.5609 10.71C11.6089 10.755 11.7049 10.824 11.7289 10.851ZM12.0139 10.971L11.9209 12.975L11.7319 13.128L11.8249 10.899C11.8729 10.92 11.9659 10.971 12.0139 10.971ZM12.2779 10.971L12.2089 12.642L12.0139 12.831L12.0889 10.992C12.1339 10.992 12.2569 10.992 12.2779 10.971Z" fill="#C09300"/>
<path d="M14.5699 10.395L14.7139 13.764L14.9539 13.98L14.8069 10.515C14.736 10.4607 14.6556 10.42 14.5699 10.395ZM14.2819 10.635L14.4019 13.455L14.6419 13.701L14.4979 10.446C14.4499 10.494 14.3089 10.611 14.2819 10.635ZM14.0209 10.851L14.1139 13.203L14.3089 13.392L14.1889 10.71C14.1409 10.755 14.0449 10.824 14.0209 10.851ZM13.7359 10.971L13.8289 12.975L14.0179 13.128L13.9249 10.899C13.8769 10.92 13.7839 10.971 13.7359 10.971ZM13.4719 10.971L13.5409 12.642L13.7359 12.831L13.6609 10.992C13.6159 10.992 13.4929 10.992 13.4719 10.971Z" fill="#C09300"/>
<path d="M12.971 12.45L13.259 13.764L13.163 13.86L13.064 13.785L12.902 12.615L12.971 13.785L12.875 13.905L12.782 13.785L12.851 12.615L12.686 13.785L12.587 13.86L12.491 13.764L12.779 12.453H12.971V12.45Z" fill="#C09300" stroke="#C09300" stroke-width="0.11"/>
<path d="M12.23 11.8739L11.657 13.9049L12.446 14.0249L12.779 12.4979L12.23 11.8739Z" fill="white" stroke="#C09300" stroke-width="0.12" stroke-linejoin="round"/>
<path d="M12.041 12.5699L12.11 12.7349L12.482 12.3809" stroke="#C09300" stroke-width="0.13" stroke-linejoin="round"/>
<path d="M12.299 12.1499L12.377 12.8789L12.614 12.5669M12.518 12.6869L12.647 13.1369M12.698 12.9719L12.437 13.3679M12.518 13.7639L12.434 13.3679M12.434 13.3679L12.362 12.9659L12.185 13.2029L12.11 12.9299L11.864 13.1819L11.987 13.6379L12.161 13.3559L12.254 13.6439L12.434 13.3679Z" stroke="#C09300" stroke-width="0.13" stroke-linejoin="round"/>
<path d="M11.825 13.8599L11.984 13.6349L12.086 13.9799L12.23 13.7399L12.323 14.0279" stroke="#C09300" stroke-width="0.13" stroke-linejoin="round"/>
<path d="M13.52 11.8739L14.093 13.9049L13.304 14.0249L12.971 12.4979L13.52 11.8739Z" fill="white" stroke="#C09300" stroke-width="0.12" stroke-linejoin="round"/>
<path d="M13.709 12.5699L13.64 12.7349L13.268 12.3809" stroke="#C09300" stroke-width="0.13" stroke-linejoin="round"/>
<path d="M13.451 12.1499L13.373 12.8789L13.136 12.5669M13.232 12.6869L13.103 13.1369M13.052 12.9719L13.313 13.3679M13.232 13.7639L13.316 13.3679M13.316 13.3679L13.388 12.9659L13.565 13.2029L13.64 12.9299L13.886 13.1819L13.763 13.6379L13.589 13.3559L13.496 13.6439L13.316 13.3679Z" stroke="#C09300" stroke-width="0.13" stroke-linejoin="round"/>
<path d="M13.925 13.8599L13.766 13.6349L13.664 13.9799L13.52 13.7399L13.427 14.0279" stroke="#C09300" stroke-width="0.13" stroke-linejoin="round"/>
<path d="M12.8748 14.8139C13.4748 14.8139 14.0448 14.7659 14.3808 14.6729C14.5218 14.6459 14.5218 14.5739 14.5218 14.4779C14.6658 14.4299 14.5938 14.2619 14.6928 14.2619C14.5908 14.2919 14.5728 14.0969 14.4528 14.1209C14.4528 13.9529 14.2818 13.9319 14.1408 13.9799C13.8558 14.0729 13.3518 14.0969 12.8748 14.0969C12.3948 14.0729 11.8968 14.0729 11.6088 13.9769C11.4678 13.9319 11.2998 13.9529 11.2998 14.1209C11.1798 14.0969 11.1588 14.2889 11.0598 14.2619C11.1588 14.2619 11.0838 14.4329 11.2278 14.4779C11.2278 14.5739 11.2278 14.6459 11.3718 14.6729C11.7018 14.7659 12.2778 14.8139 12.8748 14.8139Z" fill="white" stroke="#C09300" stroke-width="0.24" stroke-linecap="round" stroke-linejoin="round"/>
<path d="M12.0618 13.9049C12.2538 13.9319 12.4698 13.9529 12.6378 13.9319C12.7338 13.9319 12.8028 14.0969 12.6108 14.1209C12.4458 14.1419 12.1818 14.1209 12.0408 14.0969C11.8553 14.0644 11.6711 14.0244 11.4888 13.9769C11.3208 13.9049 11.4408 13.7669 11.5368 13.7849C11.7081 13.8398 11.8837 13.8799 12.0618 13.9049ZM13.6878 13.9049C13.4958 13.9319 13.2798 13.9529 13.1178 13.9319C13.0158 13.9319 12.9468 14.0969 13.1388 14.1209C13.3068 14.1419 13.5678 14.1209 13.7088 14.0969C13.8288 14.0729 14.0928 14.0279 14.2608 13.9769C14.4288 13.9049 14.3088 13.7669 14.2128 13.7849C14.0416 13.8398 13.8659 13.88 13.6878 13.9049Z" fill="white" stroke="#C09300" stroke-width="0.13" stroke-linecap="round" stroke-linejoin="round"/>
<path d="M11.4649 13.812C11.3209 13.785 11.2549 13.953 11.2999 14.049C11.3209 14.001 11.4199 14.001 11.4409 13.953C11.4679 13.881 11.4199 13.881 11.4679 13.812H11.4649ZM12.0409 14.253C12.0409 14.157 12.1339 14.169 12.1339 14.073C12.1339 14.028 12.1099 13.953 12.0619 13.953C12.0369 13.9544 12.0133 13.965 11.9956 13.9827C11.9779 14.0004 11.9673 14.024 11.9659 14.049C11.9449 14.142 12.0409 14.157 12.0409 14.253ZM12.7219 13.98C12.8629 13.98 12.8479 14.169 12.7819 14.265C12.7819 14.196 12.6619 14.169 12.6619 14.121C12.6619 14.049 12.7699 14.049 12.7219 13.98ZM14.2819 13.812C14.4289 13.785 14.4979 13.953 14.4499 14.049C14.4289 14.001 14.3299 14.001 14.3089 13.953C14.2819 13.881 14.3299 13.881 14.2819 13.812ZM13.7149 14.25C13.7149 14.154 13.6189 14.166 13.6189 14.07C13.6189 14.025 13.6429 13.95 13.6909 13.95C13.7159 13.9514 13.7394 13.962 13.7572 13.9797C13.7749 13.9974 13.7854 14.021 13.7869 14.046C13.8079 14.139 13.7119 14.154 13.7119 14.25H13.7149ZM13.0249 13.98C12.8839 13.98 12.8989 14.169 12.9649 14.265C12.9649 14.196 13.0849 14.169 13.0849 14.121C13.0849 14.049 12.9769 14.049 13.0249 13.98Z" fill="white" stroke="#C09300" stroke-width="0.13" stroke-linecap="round" stroke-linejoin="round"/>
<path d="M11.5159 13.86C11.5639 13.86 11.6359 13.881 11.6569 13.908L11.5159 13.86ZM11.7529 13.932C11.7769 13.932 11.8729 13.953 11.9179 13.98L11.7529 13.932ZM12.6109 14.028C12.5659 14.028 12.4699 14.028 12.4459 14.049L12.6109 14.025V14.028ZM12.3499 14.028C12.3229 14.001 12.2299 14.001 12.1819 14.028H12.3499ZM14.2339 13.86C14.183 13.8606 14.1336 13.8774 14.0929 13.908L14.2339 13.86ZM13.9999 13.932C13.9699 13.932 13.8799 13.953 13.8319 13.98L13.9999 13.932ZM13.1389 14.028C13.1839 14.028 13.2799 14.028 13.3069 14.049L13.1389 14.025V14.028ZM13.3999 14.028C13.4269 14.001 13.5199 14.001 13.5679 14.028H13.3999Z" fill="white" stroke="#C09300" stroke-width="0.09" stroke-linecap="round" stroke-linejoin="round"/>
<path d="M11.474 14.238C11.459 14.235 11.45 14.22 11.456 14.208C11.459 14.187 11.474 14.178 11.486 14.184C11.498 14.184 11.513 14.202 11.513 14.208L11.501 14.229L11.495 14.232C11.495 14.238 11.483 14.238 11.474 14.238ZM13.124 14.355C13.118 14.355 13.106 14.34 13.106 14.334C13.106 14.322 13.124 14.304 13.136 14.304L13.16 14.316C13.169 14.325 13.169 14.343 13.157 14.352C13.151 14.358 13.133 14.358 13.124 14.352V14.355ZM13.133 14.43C13.121 14.424 13.118 14.418 13.115 14.406C13.115 14.391 13.115 14.388 13.13 14.379L13.142 14.373L13.154 14.379C13.166 14.385 13.175 14.391 13.175 14.403C13.175 14.412 13.166 14.421 13.154 14.427C13.145 14.433 13.142 14.433 13.133 14.427V14.43Z" fill="#C09300"/>
<path d="M11.6089 14.1C11.5969 14.1 11.5819 14.112 11.5729 14.118C11.5549 14.121 11.5309 14.133 11.5129 14.118C11.4949 14.115 11.4709 14.118 11.4679 14.142C11.4709 14.163 11.4979 14.172 11.5159 14.16C11.5279 14.145 11.5609 14.133 11.5669 14.16C11.5519 14.184 11.5549 14.211 11.5429 14.232C11.5429 14.247 11.5339 14.259 11.5279 14.271C11.5129 14.271 11.4979 14.271 11.4859 14.28C11.4766 14.28 11.4674 14.2821 11.4591 14.2863C11.4507 14.2905 11.4435 14.2965 11.4379 14.304C11.4259 14.322 11.4139 14.34 11.4109 14.364C11.4139 14.382 11.4409 14.388 11.4589 14.391L11.5189 14.409L11.6149 14.436C11.6629 14.451 11.7109 14.457 11.7589 14.469L11.7739 14.472C11.7949 14.478 11.8039 14.457 11.8039 14.442L11.8339 14.334C11.8399 14.319 11.8489 14.289 11.8219 14.295C11.8069 14.304 11.7919 14.319 11.7739 14.319C11.7469 14.319 11.7619 14.349 11.7739 14.358C11.7739 14.376 11.7679 14.397 11.7589 14.412C11.7409 14.421 11.7229 14.412 11.7049 14.406C11.6899 14.406 11.6539 14.397 11.6689 14.376L11.6839 14.322C11.6929 14.304 11.6929 14.283 11.6989 14.262C11.6869 14.241 11.6689 14.271 11.6539 14.274C11.6419 14.28 11.6059 14.283 11.6239 14.304C11.6419 14.316 11.6299 14.337 11.6239 14.355C11.6239 14.376 11.5999 14.385 11.5819 14.376C11.5639 14.376 11.5369 14.361 11.5519 14.343L11.5669 14.289L11.5879 14.229C11.5879 14.208 11.5969 14.193 11.6059 14.175C11.6059 14.154 11.6209 14.136 11.6209 14.115C11.6209 14.106 11.6149 14.103 11.6089 14.103V14.1ZM11.4979 14.319C11.4993 14.3182 11.5008 14.3178 11.5024 14.3178C11.504 14.3178 11.5055 14.3182 11.5069 14.319C11.5129 14.325 11.5129 14.331 11.5069 14.337L11.4979 14.343C11.4829 14.343 11.4799 14.34 11.4799 14.334C11.4799 14.331 11.4799 14.328 11.4889 14.325C11.4925 14.3223 11.4966 14.3203 11.5009 14.319H11.4979ZM11.4679 14.469C11.4529 14.457 11.4559 14.448 11.4769 14.43C11.4889 14.424 11.4919 14.424 11.5039 14.433C11.5219 14.448 11.5219 14.457 11.5039 14.472C11.4979 14.478 11.4949 14.478 11.4889 14.478C11.4799 14.478 11.4769 14.478 11.4679 14.472V14.469ZM11.5579 14.499C11.5512 14.4969 11.5456 14.4923 11.5422 14.4861C11.5388 14.48 11.538 14.4727 11.5399 14.466C11.5459 14.454 11.5489 14.451 11.5669 14.451C11.5879 14.451 11.5909 14.454 11.5939 14.472C11.5939 14.484 11.5939 14.487 11.5849 14.493C11.5815 14.4956 11.5777 14.4975 11.5735 14.4986C11.5694 14.4996 11.5651 14.4997 11.5609 14.499H11.5579ZM14.2339 14.499C14.2279 14.496 14.2249 14.493 14.2249 14.484C14.2249 14.472 14.2309 14.463 14.2489 14.457C14.2669 14.448 14.2789 14.448 14.2849 14.463C14.2939 14.481 14.2939 14.487 14.2819 14.499C14.2759 14.508 14.2729 14.508 14.2579 14.508C14.2429 14.508 14.2399 14.508 14.2339 14.502V14.499ZM11.6839 14.535C11.6719 14.535 11.6659 14.523 11.6659 14.511C11.6659 14.502 11.6659 14.499 11.6719 14.493L11.6899 14.487L11.7079 14.49C11.7229 14.502 11.7259 14.514 11.7169 14.526C11.7079 14.538 11.6989 14.538 11.6809 14.535H11.6839ZM12.3379 14.565L12.3319 14.556C12.3319 14.538 12.3319 14.523 12.3379 14.505C12.3409 14.49 12.3379 14.475 12.3439 14.46L12.3559 14.376C12.3559 14.361 12.3559 14.346 12.3619 14.334C12.3649 14.31 12.3619 14.289 12.3679 14.268C12.3679 14.259 12.3769 14.238 12.3859 14.25C12.3979 14.268 12.4129 14.28 12.4279 14.295C12.4399 14.304 12.4279 14.316 12.4189 14.319C12.4069 14.322 12.4039 14.337 12.4039 14.349L12.3979 14.385C12.3979 14.406 12.3979 14.424 12.3919 14.445L12.3889 14.499L12.3829 14.535C12.3829 14.547 12.3829 14.562 12.3709 14.568C12.3619 14.574 12.3469 14.574 12.3409 14.565H12.3379ZM13.2289 14.271L13.1899 14.307C13.1719 14.322 13.2049 14.328 13.2079 14.34C13.2139 14.358 13.2139 14.376 13.2139 14.394C13.2199 14.412 13.2229 14.427 13.2199 14.445C13.2199 14.466 13.1959 14.46 13.1839 14.472C13.1689 14.478 13.1629 14.493 13.1539 14.502C13.1468 14.517 13.1427 14.5333 13.1419 14.55C13.1419 14.565 13.1329 14.58 13.1419 14.592L13.1449 14.598H13.1599L13.2049 14.595C13.2409 14.589 13.2799 14.589 13.3159 14.586L13.3819 14.58C13.3999 14.583 13.4089 14.565 13.4089 14.55C13.3969 14.529 13.4059 14.508 13.3969 14.49C13.3909 14.466 13.3939 14.445 13.3909 14.424C13.3909 14.406 13.3699 14.4 13.3609 14.412C13.3489 14.424 13.3309 14.427 13.3249 14.439C13.3159 14.457 13.3429 14.457 13.3489 14.469L13.3519 14.514C13.3549 14.532 13.3369 14.532 13.3219 14.535C13.3069 14.541 13.2859 14.544 13.2769 14.526C13.2709 14.511 13.2709 14.496 13.2709 14.481C13.2709 14.451 13.2619 14.427 13.2619 14.4C13.2619 14.37 13.2529 14.337 13.2529 14.304C13.2529 14.289 13.2499 14.268 13.2289 14.271ZM13.2109 14.517H13.2199V14.541L13.2109 14.544C13.207 14.5452 13.2029 14.5462 13.1989 14.547C13.1969 14.5471 13.1949 14.5471 13.1929 14.547C13.1869 14.541 13.1869 14.532 13.1959 14.523L13.2109 14.517ZM12.3109 14.241C12.3019 14.241 12.2869 14.262 12.2749 14.259C12.2479 14.262 12.2509 14.289 12.2719 14.298V14.322C12.2749 14.346 12.2599 14.367 12.2629 14.391C12.2629 14.415 12.2539 14.442 12.2539 14.469C12.2449 14.496 12.2449 14.523 12.2419 14.55C12.2389 14.574 12.2209 14.565 12.2059 14.559V14.529C12.2089 14.502 12.1909 14.496 12.1699 14.493C12.1489 14.493 12.1399 14.478 12.1459 14.46C12.1549 14.448 12.1759 14.451 12.1909 14.451C12.2209 14.457 12.2179 14.418 12.2029 14.403C12.1909 14.385 12.1669 14.373 12.1609 14.355C12.1609 14.331 12.1459 14.304 12.1249 14.292C12.0919 14.289 12.0649 14.316 12.0559 14.346C12.0409 14.346 12.0259 14.352 12.0139 14.358C11.9929 14.364 11.9629 14.4 11.9929 14.415C12.0079 14.418 12.0589 14.43 12.0349 14.451C12.0229 14.475 11.9989 14.475 11.9779 14.469C11.9569 14.469 11.9329 14.457 11.9329 14.433C11.9299 14.409 11.9299 14.385 11.9209 14.364C11.9149 14.34 11.8879 14.346 11.8849 14.37C11.8639 14.385 11.8669 14.412 11.8819 14.43C11.8909 14.451 11.8819 14.478 11.8729 14.496C11.8669 14.526 11.8369 14.526 11.8159 14.532C11.8069 14.538 11.7679 14.532 11.7829 14.553C11.8054 14.5633 11.8305 14.5665 11.8549 14.562C11.8789 14.562 11.8999 14.541 11.9149 14.52C11.9299 14.505 11.9569 14.514 11.9809 14.514C12.0019 14.514 12.0259 14.529 12.0499 14.517C12.0559 14.502 12.0859 14.472 12.0949 14.502C12.0949 14.529 12.1159 14.541 12.1399 14.538C12.1669 14.538 12.1549 14.556 12.1549 14.574C12.1549 14.601 12.1759 14.616 12.1999 14.628H12.2239C12.2449 14.619 12.2689 14.61 12.2779 14.586C12.2869 14.565 12.2869 14.541 12.2929 14.52C12.2989 14.487 12.3049 14.451 12.3049 14.418C12.3139 14.388 12.3109 14.355 12.3169 14.322L12.3259 14.253C12.3259 14.238 12.3199 14.238 12.3109 14.241ZM12.1099 14.364C12.1129 14.364 12.1159 14.37 12.1159 14.379C12.1159 14.391 12.1219 14.4 12.1309 14.403V14.412L12.1069 14.418C12.0919 14.418 12.0799 14.412 12.0709 14.403L12.0649 14.397L12.0739 14.391L12.0889 14.376C12.0979 14.367 12.1039 14.364 12.1099 14.364ZM14.0899 14.127C14.0726 14.1282 14.0555 14.1312 14.0389 14.136C14.0089 14.136 13.9939 14.166 14.0239 14.184C14.0419 14.229 14.0689 14.172 14.0989 14.178C14.1409 14.184 14.1439 14.232 14.1529 14.268C14.1529 14.301 14.1649 14.334 14.1739 14.367C14.2039 14.4 14.1529 14.421 14.1319 14.397C14.1139 14.376 14.0719 14.352 14.0509 14.379C14.0239 14.391 14.0209 14.427 13.9999 14.439C13.9639 14.448 13.9609 14.403 13.9399 14.385C13.9219 14.358 13.8889 14.355 13.8619 14.349C13.8499 14.322 13.8559 14.277 13.8319 14.259C13.8079 14.268 13.7659 14.31 13.8019 14.331C13.8319 14.361 13.7869 14.373 13.7719 14.391C13.7479 14.418 13.7419 14.451 13.7419 14.481C13.7029 14.502 13.6969 14.457 13.6909 14.43C13.6909 14.397 13.6609 14.406 13.6399 14.418C13.6099 14.43 13.5979 14.457 13.5799 14.478V14.538C13.5859 14.565 13.6159 14.553 13.6339 14.55C13.6639 14.538 13.6759 14.571 13.6519 14.589C13.6339 14.607 13.5859 14.598 13.5919 14.631H13.6399C13.6699 14.622 13.7059 14.598 13.7089 14.562C13.7149 14.532 13.7599 14.535 13.7839 14.529C13.8139 14.52 13.8529 14.517 13.8619 14.559C13.8829 14.58 13.9279 14.604 13.9519 14.574C13.9633 14.5667 13.9725 14.5564 13.9783 14.5442C13.9841 14.532 13.9864 14.5184 13.9849 14.505C13.9819 14.481 14.0239 14.481 14.0359 14.496C14.0509 14.52 14.0989 14.514 14.1229 14.496C14.1469 14.481 14.1529 14.448 14.1889 14.448L14.3509 14.403C14.3929 14.394 14.3449 14.367 14.3329 14.349C14.3029 14.334 14.2729 14.4 14.2369 14.367C14.2069 14.346 14.2099 14.307 14.2009 14.274C14.1919 14.232 14.1949 14.184 14.1649 14.154C14.1469 14.133 14.1169 14.127 14.0899 14.127ZM13.8859 14.412C13.8889 14.412 13.8949 14.412 13.9009 14.418C13.9129 14.424 13.9219 14.436 13.9219 14.448C13.9219 14.454 13.9219 14.454 13.9129 14.457L13.8979 14.463C13.8919 14.463 13.8769 14.454 13.8769 14.448V14.436C13.8709 14.424 13.8709 14.424 13.8769 14.418L13.8859 14.412ZM14.0809 14.424C14.0929 14.424 14.0989 14.424 14.1049 14.433C14.1079 14.445 14.1049 14.451 14.0929 14.457L14.0779 14.463L14.0659 14.454C14.0599 14.451 14.0569 14.448 14.0569 14.442C14.0569 14.433 14.0689 14.424 14.0809 14.421V14.424ZM13.8109 14.424C13.8169 14.424 13.8199 14.424 13.8229 14.43C13.8289 14.436 13.8319 14.439 13.8319 14.448V14.466C13.8319 14.475 13.8319 14.472 13.8139 14.472C13.7959 14.472 13.7929 14.472 13.7929 14.454C13.7929 14.442 13.7929 14.439 13.8019 14.433C13.8049 14.427 13.8109 14.427 13.8139 14.427L13.8109 14.424ZM13.6489 14.469C13.6517 14.4698 13.6543 14.4714 13.6564 14.4735C13.6585 14.4756 13.66 14.4781 13.6609 14.481C13.6609 14.49 13.6609 14.496 13.6549 14.499C13.6459 14.502 13.6309 14.505 13.6249 14.499C13.6248 14.498 13.6248 14.497 13.6249 14.496C13.6189 14.493 13.6189 14.49 13.6249 14.487V14.484L13.6309 14.475C13.6327 14.4721 13.6355 14.4699 13.6388 14.4688C13.6421 14.4677 13.6457 14.4677 13.6489 14.469ZM13.9249 14.505L13.9399 14.508V14.526H13.9039L13.9009 14.52C13.9009 14.514 13.9009 14.511 13.9069 14.508L13.9249 14.505ZM13.4119 14.649C13.4089 14.649 13.4029 14.646 13.4089 14.643C13.4119 14.634 13.4239 14.631 13.4329 14.625C13.4492 14.6187 13.4637 14.6084 13.4749 14.595C13.4749 14.583 13.4869 14.577 13.4869 14.565L13.4839 14.523C13.4798 14.5104 13.4713 14.4997 13.4599 14.493C13.4509 14.49 13.4389 14.487 13.4359 14.475C13.4359 14.466 13.4449 14.457 13.4479 14.448L13.4659 14.412C13.4749 14.403 13.4869 14.412 13.4899 14.418L13.5049 14.448C13.5139 14.457 13.5199 14.466 13.5229 14.478C13.5289 14.49 13.5349 14.499 13.5349 14.508L13.5409 14.547C13.5409 14.562 13.5409 14.58 13.5349 14.595L13.5169 14.619C13.5079 14.628 13.4989 14.637 13.4869 14.64C13.4779 14.643 13.4719 14.652 13.4599 14.652H13.4149L13.4119 14.649ZM13.2049 14.661C13.1989 14.655 13.1959 14.652 13.1959 14.643C13.1959 14.634 13.1959 14.634 13.2049 14.625C13.2169 14.613 13.2229 14.613 13.2469 14.625C13.2679 14.637 13.2769 14.637 13.2769 14.628C13.2799 14.622 13.2919 14.613 13.3069 14.613C13.3124 14.6132 13.3177 14.6153 13.3219 14.619C13.3279 14.625 13.3309 14.628 13.3309 14.64C13.3309 14.655 13.3309 14.655 13.3219 14.664C13.3129 14.67 13.3129 14.67 13.3009 14.67C13.2956 14.6697 13.2904 14.6678 13.2862 14.6646C13.2819 14.6614 13.2787 14.657 13.2769 14.652C13.2769 14.646 13.2769 14.643 13.2709 14.649L13.2649 14.652C13.2589 14.652 13.2469 14.661 13.2409 14.667L13.2259 14.67C13.2139 14.67 13.2139 14.67 13.2049 14.661ZM12.6109 14.394C12.5899 14.394 12.5689 14.412 12.5659 14.433C12.5719 14.454 12.5899 14.478 12.5779 14.499C12.5869 14.529 12.5539 14.541 12.5329 14.526C12.5209 14.496 12.5149 14.466 12.4939 14.436C12.4699 14.43 12.4609 14.469 12.4429 14.484C12.4519 14.505 12.4759 14.526 12.4789 14.553C12.4849 14.583 12.4669 14.613 12.4459 14.625C12.4249 14.646 12.3949 14.64 12.3709 14.643C12.3409 14.661 12.3919 14.667 12.4069 14.667C12.4369 14.67 12.4699 14.667 12.4969 14.643C12.5179 14.634 12.5149 14.592 12.5419 14.589L12.6859 14.598C12.7099 14.604 12.7489 14.595 12.7669 14.613C12.7669 14.643 12.7969 14.667 12.8239 14.679C12.8389 14.685 12.8539 14.664 12.8689 14.661C12.8989 14.652 12.8899 14.616 12.9079 14.601H13.0579C13.0639 14.601 13.0669 14.586 13.0759 14.58L13.0699 14.523C13.0609 14.499 13.0699 14.469 13.0549 14.448C13.0279 14.442 13.0069 14.463 12.9829 14.466C12.9529 14.478 12.9319 14.505 12.9289 14.535C12.9139 14.562 12.8869 14.529 12.8989 14.505L12.8959 14.475C12.8809 14.46 12.8539 14.466 12.8329 14.463L12.7429 14.457C12.7129 14.457 12.6859 14.46 12.6619 14.454C12.6319 14.454 12.6319 14.424 12.6319 14.4C12.6259 14.3954 12.6184 14.3933 12.6109 14.394ZM12.6709 14.505L12.7009 14.508H12.7399C12.7699 14.514 12.7999 14.514 12.8299 14.514C12.8359 14.514 12.8419 14.52 12.8479 14.526V14.586C12.8479 14.595 12.8479 14.607 12.8419 14.61C12.8403 14.6124 12.8383 14.6144 12.8359 14.616C12.8315 14.6152 12.8273 14.6134 12.8237 14.6108C12.8201 14.6083 12.8171 14.6049 12.8149 14.601V14.559C12.8089 14.5539 12.8016 14.5508 12.7939 14.55L12.7159 14.547L12.6559 14.544C12.6469 14.541 12.6349 14.544 12.6289 14.532C12.6229 14.526 12.6319 14.514 12.6409 14.511C12.6503 14.5068 12.6606 14.5047 12.6709 14.505ZM13.0099 14.514C13.0129 14.514 13.0159 14.514 13.0159 14.523L13.0219 14.538C13.0219 14.541 13.0219 14.544 13.0159 14.544C13.0009 14.55 12.9859 14.55 12.9799 14.544C12.9799 14.541 12.9799 14.529 12.9859 14.526L13.0099 14.514Z" fill="#C09300"/>
<path d="M12.875 12.8159C13.853 12.0659 13.769 10.9619 13.769 10.9619L13.694 10.9679C13.487 10.9679 12.998 10.8479 12.884 10.7009C12.764 10.8359 12.26 10.9709 12.056 10.9709L11.981 10.9619C11.981 10.9619 11.894 12.0629 12.875 12.8159Z" fill="white" stroke="#C09300" stroke-width="0.11"/>
<path d="M13.6908 11.04H13.6668C13.4808 11.04 13.0488 10.947 12.8808 10.803C12.7068 10.935 12.2658 11.043 12.0828 11.043C12.0748 11.0427 12.0667 11.0417 12.0588 11.04C12.0605 11.2296 12.0867 11.4181 12.1368 11.601C12.2572 12.0415 12.5159 12.4317 12.8748 12.714C13.234 12.4306 13.4927 12.0394 13.6128 11.598C13.6627 11.4161 13.6889 11.2286 13.6908 11.04Z" fill="white" stroke="#C09300" stroke-width="0.09"/>
<path d="M12.5568 10.95C12.3957 11.0025 12.2282 11.0328 12.0588 11.04L12.0618 11.163C12.0721 11.3102 12.0972 11.4559 12.1368 11.598C12.2175 11.8931 12.3607 12.1673 12.5568 12.402V10.95ZM13.1748 10.95V12.426C13.3804 12.1859 13.53 11.9031 13.6128 11.598C13.6524 11.4559 13.6776 11.3102 13.6878 11.163L13.6908 11.043H13.6668C13.5528 11.043 13.3548 11.007 13.1748 10.947V10.95Z" fill="#C09300"/>
<path d="M13.2438 10.59C13.2648 10.593 13.2168 10.485 13.2168 10.485C13.2708 10.539 13.4688 10.554 13.4688 10.554C13.3488 10.5 13.2288 10.101 13.2438 9.77996C13.2558 9.46196 13.1988 9.33596 13.1538 9.28796C13.0938 9.22796 12.8988 9.17396 12.7728 9.16796C12.6978 9.16496 12.7128 9.22196 12.7128 9.22196C12.5778 9.18896 12.4428 9.17396 12.3828 9.21596C12.3288 9.25196 12.3168 9.44096 12.3588 9.40796C12.4578 9.32696 12.5448 9.40196 12.6048 9.48896C12.6588 9.56396 12.6558 9.77996 12.5778 10.035C12.5088 10.2277 12.4073 10.4073 12.2778 10.566C12.3978 10.566 12.5658 10.461 12.5658 10.461L12.5268 10.626C12.6528 10.566 12.7518 10.473 12.7518 10.473L12.8718 10.599C12.9108 10.545 12.9918 10.473 12.9918 10.473C12.9918 10.473 13.0908 10.578 13.2438 10.593V10.59Z" fill="white" stroke="#C09300" stroke-width="0.12"/>
<path d="M12.7579 9.82799C12.7579 9.82799 12.6919 10.32 12.5659 10.458M12.8659 9.81299C12.8659 9.81299 12.8359 10.314 12.7519 10.473M12.9589 9.83399C12.9589 9.83399 12.9589 10.38 12.9889 10.473M13.0789 9.86099C13.0789 9.86099 13.1029 10.32 13.2169 10.485" stroke="#C09300" stroke-width="0.13"/>
<path d="M12.6349 9.58794C12.6322 9.55315 12.622 9.51937 12.6049 9.48894C12.5449 9.39894 12.4579 9.32694 12.3589 9.40794C12.3589 9.40794 12.3919 9.30294 12.4669 9.29994C12.5209 9.29694 12.6499 9.34194 12.7639 9.53394C12.7639 9.53394 12.6799 9.51594 12.6589 9.53394C12.6229 9.56394 12.6379 9.58794 12.6379 9.58794H12.6349Z" fill="#C09300" stroke="#C09300" stroke-width="0.03"/>
<path d="M12.3469 9.27896C12.3559 9.24896 12.3679 9.22496 12.3859 9.21596C12.4459 9.17396 12.5779 9.18596 12.7129 9.22196C12.7129 9.22196 12.7009 9.16496 12.7729 9.16796C12.8989 9.17396 13.0909 9.22796 13.1509 9.28796C13.1701 9.30906 13.1854 9.33345 13.1959 9.35996C13.1659 9.31796 13.0819 9.32096 13.0609 9.32396C13.0309 9.32696 13.0099 9.32396 12.9679 9.33596C12.9469 9.34196 12.9169 9.34796 12.8989 9.35996C12.8869 9.37196 12.8749 9.40796 12.8569 9.40796C12.8269 9.40796 12.8269 9.40196 12.8179 9.39296C12.8089 9.37796 12.8029 9.35996 12.7909 9.36296C12.7609 9.36596 12.7069 9.34196 12.6409 9.28796C12.5719 9.23396 12.5449 9.22196 12.4609 9.22796C12.3709 9.23396 12.3469 9.28496 12.3469 9.28496V9.27896Z" fill="#C09300" stroke="#C09300" stroke-width="0.03"/>
<path d="M12.8387 9.35691C12.8586 9.35691 12.8747 9.34079 12.8747 9.32091C12.8747 9.30103 12.8586 9.28491 12.8387 9.28491C12.8189 9.28491 12.8027 9.30103 12.8027 9.32091C12.8027 9.34079 12.8189 9.35691 12.8387 9.35691Z" fill="white"/>
</g>
</g>
<defs>
<clipPath id="clip0_69_5235">
<rect width="24" height="24" fill="white" transform="translate(0.875)"/>
</clipPath>
<clipPath id="clip1_69_5235">
<rect x="0.875" y="3" width="24" height="18" rx="4" fill="white"/>
</clipPath>
</defs>
</svg>
