<svg width="18" height="18" viewBox="0 0 18 18" fill="none" xmlns="http://www.w3.org/2000/svg">
<path d="M8.4218 15.4223C8.77737 15.2077 9.22257 15.2077 9.57814 15.4223L13.2353 17.6297C14.0826 18.1411 15.128 17.3814 14.9031 16.4175L13.9324 12.2577C13.8381 11.8532 13.9755 11.4297 14.2894 11.1578L17.5221 8.35738C18.2702 7.70931 17.8703 6.48048 16.8841 6.39684L12.6303 6.03607C12.2168 6.001 11.8567 5.73993 11.6947 5.35783L10.0301 1.43047C9.64457 0.520818 8.35537 0.520819 7.96982 1.43047L6.3052 5.35783C6.14325 5.73993 5.78312 6.001 5.3696 6.03607L1.11587 6.39684C0.129654 6.48048 -0.270259 7.70931 0.477833 8.35738L3.7105 11.1578C4.02443 11.4297 4.16188 11.8532 4.0675 12.2577L3.09688 16.4175C2.87198 17.3814 3.91729 18.1411 4.76465 17.6297L8.4218 15.4223Z" fill="#FE2629"/>
</svg>
