<svg width="25" height="18" viewBox="0 0 25 18" fill="none" xmlns="http://www.w3.org/2000/svg">
<g clip-path="url(#clip0_69_5227)">
<path d="M0.625 0H24.625V18H0.625V0Z" fill="#012169"/>
<path d="M3.4375 0L12.5875 6.7875L21.7 0H24.625V2.325L15.625 9.0375L24.625 15.7125V18H21.625L12.625 11.2875L3.6625 18H0.625V15.75L9.5875 9.075L0.625 2.4V0H3.4375Z" fill="white"/>
<path d="M16.525 10.5375L24.625 16.5V18L14.4625 10.5375H16.525ZM9.625 11.2875L9.85 12.6L2.65 18H0.625L9.625 11.2875ZM24.625 0V0.1125L15.2875 7.1625L15.3625 5.5125L22.75 0H24.625ZM0.625 0L9.5875 6.6H7.3375L0.625 1.575V0Z" fill="#C8102E"/>
<path d="M9.6625 0V18H15.6625V0H9.6625ZM0.625 6V12H24.625V6H0.625Z" fill="white"/>
<path d="M0.625 7.2375V10.8375H24.625V7.2375H0.625ZM10.8625 0V18H14.4625V0H10.8625Z" fill="#C8102E"/>
</g>
<defs>
<clipPath id="clip0_69_5227">
<rect x="0.625" width="24" height="18" rx="4" fill="white"/>
</clipPath>
</defs>
</svg>
