<svg width="22" height="20" viewBox="0 0 22 20" fill="none" xmlns="http://www.w3.org/2000/svg">
<path fill-rule="evenodd" clip-rule="evenodd" d="M6.56 2C4.04695 2 2 4.04761 2 6.59C2 9.75738 3.46091 12.3024 5.31814 14.2053C7.18744 16.1206 9.39659 17.3177 10.7031 17.7637L10.7128 17.767L10.7128 17.767C10.7425 17.7775 10.8465 17.8 11 17.8C11.1535 17.8 11.2575 17.7775 11.2872 17.767L11.2969 17.7636L11.2969 17.7637C12.6034 17.3177 14.8126 16.1206 16.6819 14.2053C18.5391 12.3024 20 9.75738 20 6.59C20 4.04761 17.953 2 15.44 2C13.9604 2 12.6327 2.71882 11.8028 3.83622C11.6142 4.09024 11.3164 4.24 11 4.24C10.6836 4.24 10.3858 4.09024 10.1972 3.83622C9.36673 2.718 8.04863 2 6.56 2ZM0 6.59C0 2.95239 2.93305 0 6.56 0C8.27774 0 9.83643 0.66428 11.0005 1.74738C12.1672 0.663886 13.7309 0 15.44 0C19.067 0 22 2.95239 22 6.59C22 10.4227 20.2209 13.4426 18.1131 15.6023C16.0193 17.7476 13.541 19.11 11.9473 19.655C11.6384 19.763 11.2947 19.8 11 19.8C10.7053 19.8 10.3616 19.763 10.0527 19.655C8.45901 19.11 5.98071 17.7476 3.88686 15.6023C1.77909 13.4426 0 10.4227 0 6.59Z" fill="#366DAF"/>
</svg>
