<svg width="237" height="152" viewBox="0 0 237 152" fill="none" xmlns="http://www.w3.org/2000/svg">
<path d="M27.6445 8.34925L17.3496 0.115315C25.3472 -0.767054 28.6333 3.59471 29.9782 7.04707C36.2262 4.45262 43.028 7.85276 43.028 7.85276L22.4298 15.3306C23.4689 12.5551 25.2779 10.1333 27.6445 8.34925Z" fill="#060C13"/>
<path d="M77.6065 34.4164L67.3116 26.1825C75.3093 25.3001 78.5955 29.6618 79.9403 33.1142C86.1884 30.5197 92.9901 33.9199 92.9901 33.9199L72.392 41.3978C73.4311 38.6222 75.24 36.2004 77.6065 34.4164Z" fill="#060C13"/>
<path d="M27.6445 75.6897L17.3496 67.4558C25.3472 66.5734 28.6333 70.9351 29.9782 74.3875C36.2262 71.793 43.028 75.1932 43.028 75.1932L22.4298 82.6711C23.4689 79.8955 25.2779 77.4737 27.6445 75.6897Z" fill="#060C13"/>
<path d="M181.981 87.8891C164.851 87.8891 150.964 74.0023 150.964 56.8719C150.964 39.7416 164.851 25.8547 181.981 25.8547C199.111 25.8547 212.998 39.7416 212.998 56.8719C212.998 74.0023 199.111 87.8891 181.981 87.8891Z" fill="#FE2629"/>
<path d="M84.7162 152.45H236.878C237.069 152.453 237.259 152.438 237.447 152.405L165.48 27.7573C165.041 26.9808 164.404 26.3349 163.633 25.8854C162.863 25.4359 161.987 25.1991 161.095 25.1991C160.203 25.1991 159.327 25.4359 158.556 25.8854C157.786 26.3349 157.148 26.9808 156.709 27.7573L108.413 111.403L106.1 115.405L84.7162 152.45Z" fill="#12243A"/>
<path d="M0.000114441 152.451H131.604L106.103 115.409L104.269 112.739L71.0377 64.4665C70.4501 63.7279 69.7136 63.1213 68.8761 62.6861C68.0386 62.2509 67.1189 61.9969 66.1768 61.9407C65.2346 61.8844 64.2912 62.0271 63.4078 62.3595C62.5245 62.692 61.721 63.2066 61.0497 63.87C60.8777 64.0585 60.7178 64.2577 60.5711 64.4665L0.000114441 152.451Z" fill="#12243A"/>
</svg>
