<svg width="20" height="17" viewBox="0 0 20 17" fill="none" xmlns="http://www.w3.org/2000/svg">
<path d="M8.9958 4.05V1C8.9958 0.734784 8.89044 0.48043 8.7029 0.292893C8.51537 0.105357 8.26101 0 7.9958 0C7.73346 0.00110462 7.48206 0.105256 7.2958 0.29L0.295798 7.29C0.20207 7.38296 0.127676 7.49356 0.0769069 7.61542C0.0261382 7.73728 0 7.86799 0 8C0 8.13201 0.0261382 8.26272 0.0769069 8.38458C0.127676 8.50644 0.20207 8.61704 0.295798 8.71L7.2958 15.71C7.43618 15.8476 7.61401 15.9408 7.80705 15.9779C8.0001 16.015 8.1998 15.9944 8.38119 15.9186C8.56259 15.8429 8.71763 15.7153 8.82694 15.5519C8.93625 15.3886 8.99499 15.1966 8.9958 15V11.9H9.8458C11.4257 11.8764 12.9918 12.197 14.4355 12.8393C15.8791 13.4817 17.1656 14.4306 18.2058 15.62C18.3312 15.7869 18.5056 15.9104 18.7046 15.9731C18.9037 16.0359 19.1174 16.0348 19.3158 15.97C19.5177 15.9019 19.6926 15.771 19.8149 15.5965C19.9372 15.422 20.0006 15.213 19.9958 15C19.9958 5.88 11.9158 4.32 8.9958 4.05ZM9.8458 9.88C9.17695 9.87791 8.50874 9.92134 7.8458 10.01C7.60906 10.0459 7.39306 10.1656 7.23708 10.3473C7.0811 10.5289 6.99548 10.7606 6.9958 11V12.59L2.4158 8L6.9958 3.41V5C6.9958 5.26522 7.10116 5.51957 7.28869 5.70711C7.47623 5.89464 7.73058 6 7.9958 6C8.9058 6 16.1058 6.2 17.6658 12.43C15.4015 10.7606 12.659 9.86626 9.8458 9.88Z" fill="#366DAF"/>
</svg>
