<svg width="157" height="150" viewBox="0 0 157 150" fill="none" xmlns="http://www.w3.org/2000/svg">
<path d="M124.098 149.336C124.098 149.336 129.254 136.644 113.786 127.125L124.098 149.336Z" fill="#E6E6E6"/>
<path d="M130.439 149.105C130.439 149.105 132.012 140.059 144.186 140.136L130.439 149.105Z" fill="#E6E6E6"/>
<path d="M14.1417 149.336C14.1417 149.336 20.9538 132.568 0.51805 119.992L14.1417 149.336Z" fill="#E6E6E6"/>
<path d="M22.5194 149.031C22.5194 149.031 24.5973 137.079 40.6808 137.182L22.5194 149.031Z" fill="#E6E6E6"/>
<path d="M47.6733 141.679L51.6271 143.148L59.1749 128.596L53.3394 126.428L47.6733 141.679Z" fill="#FFB7B7"/>
<path d="M45.2411 145.136L57.9898 149.873L58.0497 149.712C58.5386 148.396 58.4848 146.94 57.9 145.663C57.3152 144.387 56.2474 143.395 54.9314 142.906L47.1446 140.013L45.2411 145.136Z" fill="#12243A"/>
<path d="M86.5836 145.784L90.8014 145.784L92.808 129.515L86.5828 129.516L86.5836 145.784Z" fill="#FFB7B7"/>
<path d="M85.8518 149.873L99.4521 149.873V149.701C99.452 148.297 98.8942 146.95 97.9015 145.958C96.9088 144.965 95.5624 144.407 94.1585 144.407L85.8516 144.407L85.8518 149.873Z" fill="#12243A"/>
<path d="M67.2726 32.952L68.6488 30.1997L80.3462 36.0484L80.0022 38.4567L82.2385 41.3811C82.2385 41.3811 86.023 43.4453 85.3349 50.3262L84.6468 56.863L83.7867 65.292L89.8074 86.1066L92.9038 113.63L95.1401 135.821L84.3028 135.305L74.3255 99.1802L56.7794 138.057L44.7379 134.961L61.2519 96.4278L63.3162 80.2578C63.3162 80.2578 61.94 71.6568 68.4768 65.8081L67.4447 62.7117V58.8961L64.0042 40.693L67.2726 32.952Z" fill="#12243A"/>
<path opacity="0.2" d="M66.9511 72.2901L74.52 99.1252L74.1309 99.235L66.562 72.3998L66.9511 72.2901Z" fill="black"/>
<path d="M67.6167 65.292H84.4747V67.0122H67.6167V65.292Z" fill="#3F3D56"/>
<path d="M84.4748 68.0443C84.0947 68.0443 83.7867 67.2741 83.7867 66.3241C83.7867 65.374 84.0947 64.6039 84.4748 64.6039C84.8548 64.6039 85.1628 65.374 85.1628 66.3241C85.1628 67.2741 84.8548 68.0443 84.4748 68.0443Z" fill="#3F3D56"/>
<path d="M72.4736 28.5026C68.0295 26.0733 66.3963 20.5012 68.8256 16.0571C71.255 11.613 76.8271 9.97973 81.2712 12.4091C85.7153 14.8385 87.3485 20.4105 84.9192 24.8546C82.4898 29.2987 76.9177 30.932 72.4736 28.5026Z" fill="#FFB7B7"/>
<path d="M62.8392 17.1819C58.3586 17.1819 54.7263 13.5497 54.7263 9.069C54.7263 4.58835 58.3586 0.956055 62.8392 0.956055C67.3199 0.956055 70.9521 4.58835 70.9521 9.069C70.9521 13.5497 67.3199 17.1819 62.8392 17.1819Z" fill="#12243A"/>
<path d="M52.5437 8.20007C52.2237 9.27501 52.1301 10.4046 52.2687 11.5176C52.4073 12.6305 52.7751 13.7027 53.349 14.6663C53.9229 15.6299 54.6903 16.4641 55.6028 17.1161C56.5154 17.7682 57.5532 18.224 58.6507 18.4547C59.7483 18.6855 60.8818 18.6861 61.9796 18.4567C63.0774 18.2273 64.1158 17.7727 65.0291 17.1217C65.9424 16.4707 66.7108 15.6375 67.2858 14.6746C67.8608 13.7116 68.2299 12.6399 68.3699 11.5271C67.7886 13.4788 66.4946 15.1406 64.7449 16.1825C62.9952 17.2244 60.9176 17.5702 58.9248 17.1512C56.9319 16.7323 55.1694 15.5792 53.9873 13.921C52.8052 12.2628 52.2899 10.2206 52.5437 8.20007Z" fill="#12243A"/>
<path d="M84.5947 17.9097C84.8328 20.0067 84.3726 22.1238 83.2854 23.9328C82.1982 25.7418 80.5447 27.1417 78.5812 27.9156C76.6176 28.6896 74.4536 28.7943 72.4245 28.2136C70.3954 27.6328 68.6145 26.3991 67.3577 24.7036C66.101 23.008 65.4385 20.9453 65.4729 18.835C65.5074 16.7247 66.2369 14.6847 67.5485 13.0311C68.86 11.3775 70.6802 10.2026 72.7272 9.68849C74.7742 9.17436 76.9336 9.34972 78.8708 10.1874C80.4729 8.8953 82.4593 9.29575 84.0742 10.6594C85.9003 12.2012 86.4423 13.2604 87.8586 15.796C86.466 15.9916 85.9874 17.7141 84.5947 17.9097Z" fill="#12243A"/>
<path d="M50.8851 45.4886C50.9877 48.2064 51.1911 53.5559 51.1911 53.8289C51.1911 54.1167 55.2467 62.5138 56.9988 66.1277V66.1296C57.1234 66.3843 57.2352 66.6152 57.3341 66.8186C57.4696 67.0991 57.6827 67.3348 57.948 67.4979C58.2134 67.6609 58.52 67.7445 58.8314 67.7386L66.4881 67.6011C66.9089 67.594 67.3107 67.4245 67.6095 67.128C67.9084 66.8316 68.0811 66.4312 68.0916 66.0104L68.9457 32.3248C68.9485 32.2137 68.9291 32.1032 68.8885 31.9998C68.848 31.8963 68.7872 31.802 68.7096 31.7225C68.6321 31.6429 68.5394 31.5796 68.4371 31.5364C68.3347 31.4932 68.2248 31.4709 68.1136 31.4708H58.2394C57.8223 31.471 57.4138 31.5887 57.0605 31.8104C56.7072 32.0321 56.4235 32.3488 56.2419 32.7243L51.5027 42.5289C51.0584 43.4503 50.8463 44.4665 50.8851 45.4886Z" fill="#6C63FF"/>
<path d="M68.2249 63.6988C70.1896 62.5082 71.955 61.0162 73.4565 59.2775C76.9453 55.3536 79.0671 50.4039 79.5032 45.1715C79.8925 40.6947 79.0042 37.3671 76.863 35.2809C74.1414 32.6289 70.4367 33.0143 70.2803 33.0321L70.1144 33.0509L67.6046 35.1746L68.3148 36.014L70.5606 34.1137C71.248 34.0793 74.0545 34.0719 76.1046 36.0771C77.9916 37.9229 78.7665 40.9507 78.4078 45.0763C77.9927 50.0582 75.9777 54.7722 72.6633 58.5146C71.2335 60.1685 69.5574 61.5922 67.6941 62.7358L68.2249 63.6988Z" fill="#6C63FF"/>
<path d="M53.9768 50.9011L67.3552 53.6488L67.2815 54.0078L53.903 51.2601L53.9768 50.9011Z" fill="#3F3D56"/>
<path d="M62.7946 31.4633L63.1609 31.4783L62.292 52.7659L61.9257 52.7509L62.7946 31.4633Z" fill="#3F3D56"/>
<path d="M50.8851 45.4887C50.9878 48.2065 51.1912 53.5559 51.1912 53.829C51.1912 54.1167 55.2468 62.5138 56.9988 66.1277L53.733 47.1655C53.6067 46.436 53.2889 45.753 52.812 45.1866C52.3351 44.6202 51.7163 44.1907 51.0189 43.9419C50.9092 44.4498 50.8642 44.9695 50.8851 45.4887Z" fill="#3F3D56"/>
<path d="M70.9497 85.2283C70.6605 84.8557 70.4566 84.4242 70.3522 83.9643C70.2479 83.5043 70.2456 83.0271 70.3457 82.5662C70.4457 82.1053 70.6456 81.672 70.9312 81.2967C71.2169 80.9214 71.5813 80.6133 71.9989 80.3941L71.3352 73.0519L75.6987 71.5603L76.4903 81.9421C76.8121 82.668 76.8564 83.4868 76.6148 84.2432C76.3733 84.9996 75.8626 85.6411 75.1796 86.0462C74.4967 86.4512 73.6888 86.5917 72.9092 86.441C72.1296 86.2902 71.4324 85.8588 70.9497 85.2283Z" fill="#FFB7B7"/>
<path d="M70.3795 78.1237L78.1113 77.8433L77.7842 40.5562C77.7898 39.5011 77.4636 38.4709 76.8517 37.6112C76.2398 36.7516 75.3733 36.106 74.3745 35.7657C73.4411 35.4556 72.4327 35.4547 71.4988 35.7632C70.4396 36.1217 69.53 36.8227 68.9134 37.7556C68.2969 38.6885 68.0085 39.8001 68.0938 40.9151L70.3795 78.1237Z" fill="#CBCBCB"/>
<path d="M2.55083 150H156.596C156.703 150 156.806 149.957 156.882 149.882C156.957 149.806 157 149.703 157 149.596C157 149.488 156.957 149.386 156.882 149.31C156.806 149.234 156.703 149.191 156.596 149.191H2.55083C2.4436 149.191 2.34074 149.234 2.26491 149.31C2.18909 149.386 2.14651 149.488 2.14651 149.596C2.14651 149.703 2.18909 149.806 2.26491 149.882C2.34074 149.957 2.4436 150 2.55083 150Z" fill="#CBCBCB"/>
</svg>
