<svg width="20" height="14" viewBox="0 0 20 14" fill="none" xmlns="http://www.w3.org/2000/svg">
<path d="M10.4388 13.9799L6.37656 13.904C5.06131 13.8776 3.74279 13.9304 2.45333 13.6563C0.491769 13.2468 0.352805 11.2389 0.207394 9.55462C0.00703182 7.18678 0.0845979 4.77596 0.462707 2.42789C0.676162 1.11037 1.51619 0.324198 2.81527 0.238648C7.20062 -0.0718273 11.6151 -0.0350327 15.9908 0.109815C16.4529 0.123094 16.9182 0.195669 17.3739 0.27828C19.6232 0.681198 19.678 2.9566 19.8238 4.87205C19.9692 6.80728 19.9078 8.75243 19.6299 10.6745C19.4069 12.2659 18.9803 13.6004 17.1799 13.7293C14.9242 13.8977 12.7202 14.0333 10.4581 13.9902C10.4582 13.9799 10.4452 13.9799 10.4388 13.9799ZM8.05058 9.95095C9.75048 8.95354 11.4179 7.97275 13.1081 6.98203C11.4051 5.98461 9.74076 5.00382 8.05058 4.0131V9.95095Z" fill="#ECF2F9"/>
</svg>
